@startuml
state LAUNCHED
state INITIAL
state OPENED_DASHBOARD
state CLUBS_MANAGEMENT
state ORGANIZERS_MANAGEMENT
state INSCRIBERS_MANAGEMENT
state CATEGORIES_MANAGEMENT
state OPENED_INSCRIPTIONS
state COMPETITIONS_MANAGEMENT
state INSCRIBED_LIFTERS
state BATCH_MANAGEMENT
state BATCH_IN_PLAY
state FINISHED_BATCH

state logoutChoice <<choice>>

[*] --> LAUNCHED
note on link
  launch
end note

LAUNCHED --> INITIAL
note on link
  showCompetitions
  showBatchInscriptions
  showBatchWeightins
  showFinishedBatches
  showLiveBatchInPlay
  showResults
  downloadResults
end note

INITIAL --> OPENED_DASHBOARD
note on link
  login
end note

OPENED_DASHBOARD --> CLUBS_MANAGEMENT
note on link
  showClubs
end note
CLUBS_MANAGEMENT --> OPENED_DASHBOARD


OPENED_DASHBOARD --> ORGANIZERS_MANAGEMENT
note on link
  showOrganizers
end note

ORGANIZERS_MANAGEMENT --> ORGANIZERS_MANAGEMENT
note on link
  editOrganizer
  deleteOrganizer
end note
ORGANIZERS_MANAGEMENT --> OPENED_DASHBOARD


OPENED_DASHBOARD --> INSCRIBERS_MANAGEMENT
note on link
  showInscribers
end note
INSCRIBERS_MANAGEMENT --> OPENED_DASHBOARD

INSCRIBERS_MANAGEMENT --> INSCRIBERS_MANAGEMENT
note on link
  editInscriber
  deleteInscriber
end note

OPENED_DASHBOARD --> CATEGORIES_MANAGEMENT
note on link
  showCategories
end note

CATEGORIES_MANAGEMENT --> CATEGORIES_MANAGEMENT
note on link
  editCategory
  deleteCategory
end note
CATEGORIES_MANAGEMENT --> OPENED_DASHBOARD


CLUBS_MANAGEMENT --> CLUBS_MANAGEMENT
note on link
  editClub
  deleteClub
end note


INSCRIBED_LIFTERS --> INSCRIBED_LIFTERS
note on link
  inscribeLifter
  uninscribeLifter
end note


ORGANIZERS_MANAGEMENT --> OPENED_INSCRIPTIONS
note on link
  openInscriptions
end note


OPENED_INSCRIPTIONS --> INSCRIBED_LIFTERS
note on link
  showInscribedLifters
end note

OPENED_INSCRIPTIONS --> CLOSED_INSCRIPTIONS
note on link
  closeInscriptions
end note

CLOSED_INSCRIPTIONS --> CLOSED_INSCRIPTIONS
note on link
  draw_lifters
end note


OPENED_DASHBOARD --> COMPETITIONS_MANAGEMENT
note on link
  showCompetitions
end note

COMPETITIONS_MANAGEMENT --> OPENED_DASHBOARD
COMPETITIONS_MANAGEMENT --> COMPETITIONS_MANAGEMENT
note on link
  editCompetition
  deleteCompetition
end note

COMPETITIONS_MANAGEMENT --> BATCH_MANAGEMENT
note on link
  showBatches
end note

BATCH_MANAGEMENT --> BATCH_MANAGEMENT
note on link
  editBatch
  deleteBatch
  assignLifterToBatch
  unassignLifterToBatch
  introduceWeighinData
end note


BATCH_MANAGEMENT --> BATCH_IN_PLAY
note on link
  initPlay
end note

BATCH_IN_PLAY --> BATCH_IN_PLAY
note on link
  editLiftValue
  editWeightChange
  showLifterCategory
  startTimer
  pauseTimer
  resumeTimer
  setDurationTimer
  stopTimer
end note

BATCH_IN_PLAY --> FINISHED_BATCH
note on link
  finishPlay
end note

FINISHED_BATCH --> FINISHED_BATCH
note on link
 generateAct
 downloadAct
 createClassifications
 downloadClassifications
end note



CLUBS_MANAGEMENT ---> logoutChoice
ORGANIZERS_MANAGEMENT ---> logoutChoice
INSCRIBERS_MANAGEMENT ---> logoutChoice
CATEGORIES_MANAGEMENT ---> logoutChoice
OPENED_INSCRIPTIONS ---> logoutChoice
INSCRIBED_LIFTERS ---> logoutChoice
CLOSED_INSCRIPTIONS ---> logoutChoice
BATCH_MANAGEMENT ---> logoutChoice
BATCH_IN_PLAY ---> logoutChoice
FINISHED_BATCH ---> logoutChoice

logoutChoice --> [*]
note on link
 logout
end note

@enduml