@startuml
state LOGGED_IN
state EDITED_CATEGORY
state SHOWED_CLUBS
state SHOWED_ORGANIZERS
state SHOWED_INSCRIBERS

state enterShowCategoriesCHC <<choice>>

state showCategories {
  [*] --> [*]
  note on link
    System shows:
    * active categories indicator
    * categories name
    * categories competition type
    * categories gender
    * categories minimum age
    * categories maximum age
    * categories bodyweight categories

    System allows to:
    * deleteCategory
    * editCategory
    * showClubs
    * showOrganizers
    * showInscribers
    * logout
  end note
}
state SHOWED_CATEGORIES

LOGGED_IN --> enterShowCategoriesCHC
EDITED_CATEGORY --> enterShowCategoriesCHC
SHOWED_CLUBS --> enterShowCategoriesCHC
SHOWED_ORGANIZERS --> enterShowCategoriesCHC
SHOWED_INSCRIBERS --> enterShowCategoriesCHC

enterShowCategoriesCHC --> showCategories
note on link
  Organization Secretary
  requests to:
  * showCategories
end note
showCategories --> SHOWED_CATEGORIES

footer \n\n\n Especificación del caso de uso "showCategories"
@enduml
